<svg fill="none" xmlns="http://www.w3.org/2000/svg" viewBox="2.59 38.32 153.81 68.24"> <mask id="mask0_2_9" style="mask-type:alpha" maskUnits="userSpaceOnUse" x="2" y="38" width="155" height="69"> <path d="M100.704 38.32L84.096 106H60.96L51.648 64.528L42.144 106H19.008L2.592 38.32H22.944L30.816 84.592L41.472 38.32H62.112L72.48 84.208L80.352 38.32H100.704Z" fill="white"></path> <path d="M124.16 67.36C125.387 65.2267 127.12 63.5733 129.36 62.4C131.6 61.1733 134.24 60.56 137.28 60.56C140.853 60.56 144.08 61.4933 146.96 63.36C149.893 65.2267 152.187 67.8933 153.84 71.36C155.547 74.8267 156.4 78.88 156.4 83.52C156.4 88.16 155.547 92.24 153.84 95.76C152.187 99.2267 149.893 101.893 146.96 103.76C144.08 105.627 140.853 106.56 137.28 106.56C134.24 106.56 131.6 105.973 129.36 104.8C127.12 103.573 125.387 101.893 124.16 99.76V106H108.48V46.8H124.16V67.36ZM140.48 83.52C140.48 80.5867 139.68 78.32 138.08 76.72C136.533 75.0667 134.613 74.24 132.32 74.24C130.027 74.24 128.08 75.0667 126.48 76.72C124.933 78.3733 124.16 80.64 124.16 83.52C124.16 86.4533 124.933 88.7467 126.48 90.4C128.08 92.0533 130.027 92.88 132.32 92.88C134.613 92.88 136.533 92.0533 138.08 90.4C139.68 88.6933 140.48 86.4 140.48 83.52Z" fill="white"></path> </mask> <g mask="url(#mask0_2_9)"> <rect x="-157" y="-62" width="444" height="257" fill="url(#paint0_linear_2_9)"></rect> </g> <defs> <linearGradient id="paint0_linear_2_9" x1="-7" y1="143" x2="220" y2="41" gradientUnits="userSpaceOnUse"> <stop offset="0.116732" stop-color="#BCF544"></stop> <stop offset="1" stop-color="#156218"></stop> </linearGradient> </defs> </svg>