<svg fill="none" xmlns="http://www.w3.org/2000/svg" viewBox="0 4 237 137"> <rect y="4" width="237" height="137" rx="20" fill="#32383E"></rect> <mask id="mask0_5_11" style="mask-type:alpha" maskUnits="userSpaceOnUse" x="41" y="38" width="155" height="69"> <path d="M139.704 38.32L123.096 106H99.96L90.648 64.528L81.144 106H58.008L41.592 38.32H61.944L69.816 84.592L80.472 38.32H101.112L111.48 84.208L119.352 38.32H139.704Z" fill="white"></path> <path d="M163.16 67.36C164.387 65.2267 166.12 63.5733 168.36 62.4C170.6 61.1733 173.24 60.56 176.28 60.56C179.853 60.56 183.08 61.4933 185.96 63.36C188.893 65.2267 191.187 67.8933 192.84 71.36C194.547 74.8267 195.4 78.88 195.4 83.52C195.4 88.16 194.547 92.24 192.84 95.76C191.187 99.2267 188.893 101.893 185.96 103.76C183.08 105.627 179.853 106.56 176.28 106.56C173.24 106.56 170.6 105.973 168.36 104.8C166.12 103.573 164.387 101.893 163.16 99.76V106H147.48V46.8H163.16V67.36ZM179.48 83.52C179.48 80.5867 178.68 78.32 177.08 76.72C175.533 75.0667 173.613 74.24 171.32 74.24C169.027 74.24 167.08 75.0667 165.48 76.72C163.933 78.3733 163.16 80.64 163.16 83.52C163.16 86.4533 163.933 88.7467 165.48 90.4C167.08 92.0533 169.027 92.88 171.32 92.88C173.613 92.88 175.533 92.0533 177.08 90.4C178.68 88.6933 179.48 86.4 179.48 83.52Z" fill="white"></path> </mask> <g mask="url(#mask0_5_11)"> <rect x="-118" y="-62" width="444" height="257" fill="url(#paint0_linear_5_11)"></rect> </g> <defs> <linearGradient id="paint0_linear_5_11" x1="32" y1="143" x2="259" y2="41" gradientUnits="userSpaceOnUse"> <stop offset="0.116732" stop-color="#BCF544"></stop> <stop offset="1" stop-color="#156218"></stop> </linearGradient> </defs> </svg>